HIERARCHY
ROOT ui
{
	 OFFSET 0 0 0
	 CHANNELS 3 XPosition YPosition Z Position
	 EndSite
	 {
	 OFFSET 0 -1 0
	 }
}
ROOT li
{
	 OFFSET 0 0 0
	 CHANNELS 3 XPosition YPosition Z Position
	 EndSite
	 {
	 OFFSET 0 -1 0
	 }
}
ROOT ul
{
	 OFFSET 0 0 0
	 CHANNELS 3 XPosition YPosition Z Position
	 EndSite
	 {
	 OFFSET 0 -1 0
	 }
}
ROOT ll
{
	 OFFSET 0 0 0
	 CHANNELS 3 XPosition YPosition Z Position
	 EndSite
	 {
	 OFFSET 0 -1 0
	 }
}
ROOT tt
{
	 OFFSET 0 0 0
	 CHANNELS 3 XPosition YPosition Z Position
	 EndSite
	 {
	 OFFSET 0 -1 0
	 }
}
ROOT tb
{
	 OFFSET 0 0 0
	 CHANNELS 3 XPosition YPosition Z Position
	 EndSite
	 {
	 OFFSET 0 -1 0
	 }
}
ROOT td
{
	 OFFSET 0 0 0
	 CHANNELS 3 XPosition YPosition Z Position
	 EndSite
	 {
	 OFFSET 0 -1 0
	 }
}
ROOT v
{
	 OFFSET 0 0 0
	 CHANNELS 3 XPosition YPosition Z Position
	 EndSite
	 {
	 OFFSET 0 -1 0
	 }
}
ROOT bn
{
	 OFFSET 0 0 0
	 CHANNELS 3 XPosition YPosition Z Position
	 EndSite
	 {
	 OFFSET 0 -1 0
	 }
}
MOTION
Frames: 29
Frame Time: 0.002
0.00908170509338379	2.6864099502563475E-4	0		0.5238472290039062	-2.357699951171875	0		-1.12816796875	-0.07471834564208985	0		-0.74879150390625	-2.45766357421875	0		1.20639453125	-0.7227327270507813	0		3.08622216796875	-0.21381143188476562	0		4.68900927734375	0.027226377487182617	0		5.58221044921875	0.18840324401855468	0		-0.312299560546875	5.85673486328125	0		
0.00838096046447754	1.8373499810695647E-4	0		0.46180267333984376	-2.3427734375	0		-1.1328985595703125	-0.07795722198486328	0		-0.75891162109375	-2.44974365234375	0		1.264882080078125	-0.7194653930664062	0		3.08976806640625	-0.19937953186035157	0		4.67343798828125	0.03724041366577149	0		5.5775341796875	0.20403143310546876	0		-0.31311419677734376	5.85557470703125	0		
0.007772057056427002	1.0183800011873245E-4	0		0.5234374389648437	-2.357670166015625	0		-1.1375501708984375	-0.08220172119140624	0		-0.7610742797851563	-2.45194482421875	0		1.264412841796875	-0.7193035278320312	0		3.100977783203125	-0.21403713989257814	0		4.69768798828125	0.02869972610473633	0		5.58131298828125	0.1917410125732422	0		-0.3158442077636719	5.85644482421875	0		
-0.017743009567260742	3.8333600759506224E-4	0		0.4595636291503906	-2.344727294921875	0		-1.1380516357421875	-0.08250560760498046	0		-0.7740210571289062	-2.445988037109375	0		1.2609796142578125	-0.723090576171875	0		3.07961962890625	-0.20520455932617188	0		4.67718115234375	0.03083324432373047	0		5.57384130859375	0.19545671081542967	0		-0.45080413818359377	5.83721875	0		
0.03280979537963867	-0.0014191410541534424	0		0.4974661865234375	-2.354250244140625	0		-1.138463134765625	-0.08280511474609376	0		-0.7511680297851563	-2.460541015625	0		1.2046998291015625	-0.7221226806640625	0		3.09001806640625	-0.21982778930664063	0		4.6767470703125	0.0316793384552002	0		5.58067626953125	0.19522210693359374	0		-0.43726983642578127	5.8448408203125	0		
-0.015469355583190918	0.0031884920597076414	0		0.4767119750976562	-2.3449306640625	0		-1.13068994140625	-0.07620941925048828	0		-0.7469739379882813	-2.4568134765625	0		1.2136533203125	-0.7110856323242187	0		3.0860849609375	-0.19324354553222656	0		4.6843720703125	0.03040696907043457	0		5.5762529296875	0.21093507385253907	0		-0.4387327575683594	5.845685546875	0		
0.035255096435546876	0.0014169100522994995	0		0.5179119262695312	-2.344470703125	0		-1.139027587890625	-0.08337810516357422	0		-0.7824691772460938	-2.435525146484375	0		1.2015196533203125	-0.71175341796875	0		3.0836171875	-0.2106913757324219	0		4.69612255859375	0.03206824493408203	0		5.58028662109375	0.1986502685546875	0		-0.321947265625	5.85590673828125	0		
-0.018945905685424806	1.0046800225973129E-4	0		0.48815634155273435	-2.345024658203125	0		-1.1432310791015625	-0.08659280395507812	0		-0.7404052734375	-2.45129931640625	0		1.2633853759765625	-0.718433837890625	0		3.078573486328125	-0.2031121368408203	0		4.67106298828125	0.04221807098388672	0		5.57305419921875	0.20227423095703126	0		-0.32320919799804687	5.85578857421875	0		
0.0059432401657104495	-2.9195299744606015E-4	0		0.5144237670898437	-2.34833984375	0		-1.1592286376953125	-0.07963539886474609	0		-0.7869509887695313	-2.441853515625	0		1.192532470703125	-0.7083075561523438	0		3.083406494140625	-0.2096820526123047	0		4.68175732421875	0.028852432250976563	0		5.5729931640625	0.20387788391113282	0		-0.45861996459960935	5.83748095703125	0		
-0.019101253509521486	-6.539999973028898E-6	0		0.46487567138671876	-2.34063623046875	0		-1.1433560791015625	-0.08709268188476563	0		-0.77670068359375	-2.451167236328125	0		1.198526611328125	-0.7142302856445313	0		3.0667021484375	-0.18597885131835937	0		4.6757861328125	0.03568431091308594	0		5.57589453125	0.21743589782714845	0		-0.45867779541015624	5.836341796875	0		
0.03492803955078125	0.0012401340007781982	0		0.49326138305664063	-2.3409697265625	0		-1.1392952880859375	-0.08437331390380859	0		-0.7722424926757813	-2.447388427734375	0		1.200873046875	-0.6971052856445312	0		3.083437255859375	-0.20874345397949218	0		4.67395849609375	0.04942721557617188	0		5.5694951171875	0.21911151123046874	0		-0.3263547058105469	5.8554794921875	0		
-0.019038898468017578	-9.183300286531449E-5	0		0.49367572021484374	-2.34093115234375	0		-1.1532393798828124	-0.08540404510498047	0		-0.7408921508789063	-2.4539453125	0		1.2599002685546874	-0.707721435546875	0		3.081679443359375	-0.19628187561035157	0		4.6766552734375	0.02307167625427246	0		5.5730478515625	0.20828399658203126	0		-0.3281867980957031	5.8564052734375	0		
0.006051990985870361	-4.474560022354126E-4	0		0.4831840515136719	-2.334751953125	0		-1.1531341552734375	-0.08560295867919922	0		-0.7873261108398437	-2.4444833984375	0		1.254172607421875	-0.7014959106445312	0		3.083646728515625	-0.20789460754394531	0		4.67592431640625	0.03772529220581055	0		5.569625	0.2218170623779297	0		-0.46219668579101564	5.83703076171875	0		
-0.018823522567749024	-1.5817399322986603E-4	0		0.49049227905273435	-2.3448037109375	0		-1.16297412109375	-0.08365948486328124	0		-0.755967041015625	-2.452009765625	0		1.251351318359375	-0.70431787109375	0		3.07888623046875	-0.2004466552734375	0		4.6719658203125	0.032375194549560546	0		5.57322607421875	0.2108216552734375	0		-0.4969178466796875	5.83237158203125	0		
0.006318786144256592	-4.991550147533417E-4	0		0.477902587890625	-2.3466044921875	0		-1.1469085693359375	-0.09102850341796875	0		-0.7765428466796875	-2.4538642578125	0		1.2055487060546874	-0.706610107421875	0		3.089865966796875	-0.21522738647460937	0		4.681080078125	0.03081565856933594	0		5.56983642578125	0.22417140197753907	0		-0.4483233642578125	5.84566943359375	0		
-0.015482148170471192	0.002753511905670166	0		0.473491455078125	-2.33351025390625	0		-1.14673828125	-0.09118039703369141	0		-0.7839663696289062	-2.44287548828125	0		1.210875732421875	-0.6995573120117188	0		3.089436279296875	-0.18388758850097656	0		4.68431103515625	0.03728853225708008	0		5.5835107421875	0.2248039093017578	0		-0.3145895080566406	5.86392822265625	0		
0.006649838924407959	-5.379859805107116E-4	0		0.4718810729980469	-2.335454833984375	0		-1.16247021484375	-0.08412176513671875	0		-0.7875899047851562	-2.44692626953125	0		1.261189697265625	-0.6940670776367187	0		3.069343994140625	-0.20633587646484375	0		4.67650341796875	0.03985649490356445	0		5.57009033203125	0.226169189453125	0		-0.3311270751953125	5.85607470703125	0		
0.006827895164489746	-5.539519786834717E-4	0		0.52217919921875	-2.3440380859375	0		-1.1622841796875	-0.08424875640869141	0		-0.7912282104492188	-2.45096826171875	0		1.193438720703125	-0.6931315307617187	0		3.08454052734375	-0.20624461364746094	0		4.68750537109375	0.02615040397644043	0		5.5737294921875	0.2148265838623047	0		-0.4647523193359375	5.83665625	0		
-0.017988985061645507	-2.647089958190918E-4	0		0.4597116394042969	-2.33124365234375	0		-1.1701802978515625	-0.0912657470703125	0		-0.7928612670898437	-2.45302685546875	0		1.190630859375	-0.6970078125	0		3.069740478515625	-0.20581338500976562	0		4.67768505859375	0.026658105850219726	0		5.56744775390625	0.21580271911621093	0		-0.4650708618164062	5.83660107421875	0		
0.007190032958984375	-5.8262300491333E-4	0		0.496958984375	-2.34066943359375	0		-1.16595654296875	-0.08841815185546875	0		-0.7924932250976563	-2.453101806640625	0		1.1969490966796874	-0.6900044555664062	0		3.089104736328125	-0.1918241729736328	0		4.68193603515625	0.03295181655883789	0		5.57049609375	0.22852679443359375	0		-0.4502279052734375	5.845369140625	0		
-0.017630346298217775	-2.9629799723625185E-4	0		0.47538027954101564	-2.33338671875	0		-1.16172509765625	-0.0845595703125	0		-0.7901260986328125	-2.45119384765625	0		1.19717333984375	-0.689938232421875	0		3.05820166015625	-0.19925738525390624	0		4.6772080078125	0.041312557220458984	0		5.57062841796875	0.22914166259765625	0		-0.33230865478515625	5.85590625	0		
0.007541307926177979	-6.109910011291503E-4	0		0.5157005004882812	-2.3328515625	0		-1.1726773681640625	-0.09551068115234375	0		-0.7918318481445312	-2.4532314453125	0		1.197387451171875	-0.6898823852539062	0		3.09945556640625	-0.19358224487304687	0		4.67737890625	0.0415737190246582	0		5.574263671875	0.2174634552001953	0		-0.3314927978515625	5.85485986328125	0		
-0.01728784370422363	-3.2861098647117613E-4	0		0.4739549255371094	-2.3353408203125	0		-1.17250341796875	-0.09558563232421875	0		-0.7616478271484375	-2.462643310546875	0		1.259515625	-0.6965748291015625	0		3.073552978515625	-0.2001309051513672	0		4.6775458984375	0.04179502105712891	0		5.56796923828125	0.2181028594970703	0		-0.46584881591796873	5.836423828125	0		
0.007876300811767578	-6.423770189285279E-4	0		0.5132042236328125	-2.336800048828125	0		-1.176368896484375	-0.09860370635986328	0		-0.8092684326171875	-2.453123291015625	0		1.1947509765625	-0.692767822265625	0		3.08075048828125	-0.19810162353515626	0		4.6785439453125	0.02796388053894043	0		5.56809130859375	0.21847218322753906	0		-0.49998471069335937	5.83179150390625	0		
-0.01695677375793457	-3.6406201124191285E-4	0		0.4744613037109375	-2.335339599609375	0		-1.176200439453125	-0.09866030120849609	0		-0.7611318359375	-2.46273486328125	0		1.2098197021484376	-0.7029225463867188	0		3.069733642578125	-0.21388597106933593	0		4.67277978515625	0.03417178726196289	0		5.57112353515625	0.23078317260742187	0		-0.46397979736328127	5.8343310546875	0		
0.047123550415039066	-0.008137960433959961	0		0.513600830078125	-2.34280615234375	0		-1.1719954833984374	-0.09575526428222657	0		-0.7928190307617188	-2.455394775390625	0		1.2160865478515626	-0.6959827270507812	0		3.093129150390625	-0.19510183715820312	0		4.68601611328125	0.04011430358886719	0		5.57415625	0.24301199340820312	0		-0.3166003112792969	5.86356396484375	0		
-0.013582991600036622	0.0025621678829193116	0		0.4769195556640625	-2.333381103515625	0		-1.1758577880859375	-0.09874624633789063	0		-0.7736201782226563	-2.45665087890625	0		1.19834130859375	-0.6897697143554687	0		3.0651640625	-0.20673861694335938	0		4.6782109375	0.04226723098754883	0		5.56717333984375	0.2485302734375	0		-0.46486959838867187	5.8352861328125	0		
0.008554022789001465	-7.147380113601685E-4	0		0.5010537719726562	-2.338677001953125	0		-1.179718017578125	-0.10172734832763672	0		-0.812433349609375	-2.45721630859375	0		1.1985213623046875	-0.6897769165039063	0		3.08636181640625	-0.20497654724121095	0		4.67431396484375	0.0363387222290039	0		5.56858154296875	0.21913545227050782	0		-0.4647478942871094	5.83526416015625	0		
-0.016270547866821288	-4.3558099865913393E-4	0		0.47324539184570313	-2.33736181640625	0		-1.1876259765625	-0.1086500244140625	0		-0.7803399047851562	-2.464609375	0		1.1986962890625	-0.6897899780273438	0		3.061455322265625	-0.2116913757324219	0		4.67939306640625	0.02827356719970703	0		5.5687060546875	0.21912614440917969	0		-0.464584716796875	5.835248046875	0		
